<?xml version="1.0" standalone="no"?>
<!DOCTYPE svg PUBLIC "-//W3C//DTD SVG 1.1//EN" "http://www.w3.org/Graphics/SVG/1.1/DTD/svg11.dtd">
<!--Generator: Xara Designer (www.xara.com), SVG filter version: 4.0.0.1-->
<svg stroke-width="0.501" stroke-linejoin="bevel" fill-rule="evenodd" xmlns:xlink="http://www.w3.org/1999/xlink" xmlns="http://www.w3.org/2000/svg" version="1.1" overflow="visible" width="37.571pt" height="38.375pt" viewBox="0 0 37.571 38.375">
 <defs>
  <marker id="DefaultArrow2" markerUnits="strokeWidth" viewBox="0 0 1 1" markerWidth="1" markerHeight="1" overflow="visible" orient="auto">
   <!-- REF_ARROW_STRAIGHT (-2) -->
   <g transform="scale(0.0092592592)">
    <!-- 1/108 -->
    <path d="M -9 54 L -9 -54 L 117 0 z"/>
   </g>
  </marker>
  <marker id="DefaultArrow3" markerUnits="strokeWidth" viewBox="0 0 1 1" markerWidth="1" markerHeight="1" overflow="visible" orient="auto">
   <!-- REF_ARROW_ANGLED -->
   <g transform="scale(0.0092592592)">
    <path d="M -27 54 L -9 0 L -27 -54 L 135 0 z"/>
   </g>
  </marker>
  <marker id="DefaultArrow4" markerUnits="strokeWidth" viewBox="0 0 1 1" markerWidth="1" markerHeight="1" overflow="visible" orient="auto">
   <!-- REF_ARROW_ROUNDED -->
   <g transform="scale(0.0092592592)">
    <path d="M -9,0 L -9,-45 C -9,-51.708 2.808,-56.580 9,-54 L 117,-9 C 120.916,-7.369 126.000,-4.242 126,0 C 126,4.242 120.916,7.369 117,9 L 9,54 C 2.808,56.580 -9,51.708 -9,45 z"/>
   </g>
  </marker>
  <marker id="DefaultArrow5" markerUnits="strokeWidth" viewBox="0 0 1 1" markerWidth="1" markerHeight="1" overflow="visible" orient="auto">
   <!-- REF_ARROW_SPOT -->
   <g transform="scale(0.0092592592)">
    <path d="M -54, 0 C -54,29.807 -29.807,54 0,54 C 29.807,54 54,29.807 54,0 C 54,-29.807 29.807,-54 0,-54 C -29.807,-54 -54,-29.807 -54,0 z"/>
   </g>
  </marker>
  <marker id="DefaultArrow6" markerUnits="strokeWidth" viewBox="0 0 1 1" markerWidth="1" markerHeight="1" overflow="visible" orient="auto">
   <!-- REF_ARROW_DIAMOND -->
   <g transform="scale(0.0092592592)">
    <path d="M -63,0 L 0,63 L 63,0 L 0,-63 z"/>
   </g>
  </marker>
  <marker id="DefaultArrow7" markerUnits="strokeWidth" viewBox="0 0 1 1" markerWidth="1" markerHeight="1" overflow="visible" orient="auto">
   <!-- REF_ARROW_FEATHER -->
   <g transform="scale(0.0092592592)">
    <path d="M 18,-54 L 108,-54 L 63,0 L 108,54 L 18, 54 L -36,0 z"/>
   </g>
  </marker>
  <marker id="DefaultArrow8" markerUnits="strokeWidth" viewBox="0 0 1 1" markerWidth="1" markerHeight="1" overflow="visible" orient="auto">
   <!-- REF_ARROW_FEATHER2 -->
   <g transform="scale(0.0092592592)">
    <path d="M -36,0 L 18,-54 L 54,-54 L 18,-18 L 27,-18 L 63,-54 L 99,-54 L 63,-18 L 72,-18 L 108,-54 L 144,-54 L 90,0 L 144,54 L 108,54 L 72,18 L 63,18 L 99,54 L 63,54 L 27,18 L 18,18 L 54,54 L 18,54 z"/>
   </g>
  </marker>
  <marker id="DefaultArrow9" markerUnits="strokeWidth" viewBox="0 0 1 1" markerWidth="1" markerHeight="1" overflow="visible" orient="auto">
   <!-- REF_ARROW_HOLLOWDIAMOND -->
   <g transform="scale(0.0092592592)">
    <path d="M 0,45 L -45,0 L 0, -45 L 45, 0 z M 0, 63 L-63, 0 L 0, -63 L 63, 0 z"/>
   </g>
  </marker>
  <filter id="StainedFilter">
   <feBlend mode="multiply" in2="BackgroundImage" in="SourceGraphic" result="blend"/>
   <feComposite in="blend" in2="SourceAlpha" operator="in" result="comp"/>
  </filter>
  <filter id="BleachFilter">
   <feBlend mode="screen" in2="BackgroundImage" in="SourceGraphic" result="blend"/>
   <feComposite in="blend" in2="SourceAlpha" operator="in" result="comp"/>
  </filter>
  <filter id="InvertTransparencyBitmapFilter">
   <feComponentTransfer>
    <feFuncR type="gamma" amplitude="1.055" exponent=".416666666" offset="-0.055"/>
    <feFuncG type="gamma" amplitude="1.055" exponent=".416666666" offset="-0.055"/>
    <feFuncB type="gamma" amplitude="1.055" exponent=".416666666" offset="-0.055"/>
   </feComponentTransfer>
   <feComponentTransfer>
    <feFuncR type="linear" slope="-1" intercept="1"/>
    <feFuncG type="linear" slope="-1" intercept="1"/>
    <feFuncB type="linear" slope="-1" intercept="1"/>
    <feFuncA type="linear" slope="1" intercept="0"/>
   </feComponentTransfer>
   <feComponentTransfer>
    <feFuncR type="gamma" amplitude="1" exponent="2.4" offset="0"/>
    <feFuncG type="gamma" amplitude="1" exponent="2.4" offset="0"/>
    <feFuncB type="gamma" amplitude="1" exponent="2.4" offset="0"/>
   </feComponentTransfer>
  </filter>
 </defs>
 <g id="Document" fill="none" stroke="black" font-family="Times New Roman" font-size="16" transform="scale(1 -1)">
  <g id="Spread" transform="translate(0 -38.375)">
   <g id="SVG Document">
    <path d="M 5.83,28.021 C 6.763,27.779 10.465,26.661 12.691,25.982 C 14.914,25.302 16.579,24.863 17.873,24.501 C 19.178,24.129 19.079,23.109 18.06,23.197 C 17.04,23.295 15.835,23.844 14.63,24.315 C 13.425,24.776 9.633,25.883 7.684,26.541 C 5.744,27.188 5.272,27.188 4.998,27.561 C 4.724,27.921 4.899,28.262 5.83,28.021 L 5.83,28.021 Z" stroke="none" fill="#a12225" stroke-width="0.624" stroke-linejoin="miter" marker-start="none" marker-end="none" stroke-miterlimit="79.8403193612775"/>
    <path d="M 19.736,23.941 C 20.568,24.029 20.656,23.196 20.47,22.735 C 20.284,22.275 19.363,22.088 19.178,22.549 C 18.893,23.196 18.893,23.843 19.736,23.941 L 19.736,23.941 Z" stroke="none" fill="#a12225" stroke-width="0.624" stroke-linejoin="miter" marker-start="none" marker-end="none" stroke-miterlimit="79.8403193612775"/>
    <path d="M 30.661,30.619 C 30.113,30.148 28.437,29.128 27.241,28.296 C 26.036,27.462 23.813,25.982 23.156,25.608 C 22.507,25.235 21.675,24.776 21.117,24.314 C 20.568,23.843 20.755,23.01 21.588,23.294 C 22.421,23.568 23.253,24.028 23.813,24.588 C 24.361,25.148 24.919,25.52 25.477,25.882 C 26.036,26.255 30.299,29.412 31.131,29.972 C 31.966,30.893 31.219,31.079 30.661,30.619 L 30.661,30.619 Z" stroke="none" fill="#a12225" stroke-width="0.624" stroke-linejoin="miter" marker-start="none" marker-end="none" stroke-miterlimit="79.8403193612775"/>
    <path d="M 32.798,32.187 C 33.259,32.187 33.443,31.167 32.984,30.893 C 32.525,30.62 31.866,30.62 31.866,31.54 C 31.866,32.472 32.336,32.187 32.798,32.187 L 32.798,32.187 Z" stroke="none" fill="#a12225" stroke-width="0.624" stroke-linejoin="miter" marker-start="none" marker-end="none" stroke-miterlimit="79.8403193612775"/>
    <path d="M 32.525,30.246 C 32.885,30.246 33.073,29.501 32.984,28.942 C 32.885,28.393 33.073,24.776 33.169,23.481 C 33.259,22.177 33.259,21.618 33.073,21.156 C 32.885,20.697 33.073,19.951 33.073,18.744 C 33.073,17.539 32.885,15.97 32.798,15.313 C 32.701,14.665 32.61,14.206 32.239,14.293 C 31.866,14.392 31.866,14.852 31.866,15.596 C 31.866,16.333 31.866,20.236 31.966,21.156 C 32.052,22.088 32.052,22.461 32.052,23.196 C 32.052,23.941 32.052,28.295 32.052,29.039 C 32.052,29.784 32.152,30.246 32.525,30.246 L 32.525,30.246 Z" stroke="none" fill="#a12225" stroke-width="0.624" stroke-linejoin="miter" marker-start="none" marker-end="none" stroke-miterlimit="79.8403193612775"/>
    <path d="M 32.239,13.558 C 32.798,13.646 32.984,12.626 32.701,12.351 C 32.426,12.067 31.778,12.166 31.593,12.626 C 31.406,13.087 31.68,13.459 32.239,13.558 L 32.239,13.558 Z" stroke="none" fill="#a12225" stroke-width="0.624" stroke-linejoin="miter" marker-start="none" marker-end="none" stroke-miterlimit="79.8403193612775"/>
    <path d="M 3.858,28.853 C 4.362,28.93 4.525,28.021 4.108,27.692 C 3.692,27.352 3.113,27.604 3.198,28.108 C 3.276,28.602 3.365,28.765 3.858,28.853 L 3.858,28.853 Z" stroke="none" fill="#a12225" stroke-width="0.624" stroke-linejoin="miter" marker-start="none" marker-end="none" stroke-miterlimit="79.8403193612775"/>
    <path d="M 5.032,29.599 C 6.192,30.18 8.602,31.682 9.183,31.847 C 9.765,32.013 10.838,32.68 11.254,33.009 C 11.671,33.339 12.996,34.094 13.249,34.259 C 13.501,34.422 14.662,34.259 13.665,33.59 C 12.668,32.922 11.254,32.099 10.258,31.518 C 9.26,30.925 6.433,29.434 5.853,29.182 C 5.272,28.93 3.858,29.018 5.032,29.599 L 5.032,29.599 Z" stroke="none" fill="#a12225" stroke-width="0.624" stroke-linejoin="miter" marker-start="none" marker-end="none" stroke-miterlimit="79.8403193612775"/>
    <path d="M 14.914,35.092 C 15.078,35.17 15.581,34.752 15.33,34.423 C 15.078,34.095 14.75,33.843 14.41,34.423 C 14.081,35.004 14.75,35.004 14.914,35.092 L 14.914,35.092 Z" stroke="none" fill="#a12225" stroke-width="0.624" stroke-linejoin="miter" marker-start="none" marker-end="none" stroke-miterlimit="79.8403193612775"/>
    <path d="M 16.581,35.004 C 17.655,35.004 20.318,34.588 21.15,34.336 C 21.972,34.095 23.638,33.843 23.965,33.755 C 24.306,33.678 25.468,33.678 25.718,33.591 C 25.961,33.513 26.716,33.173 28.206,33.009 C 29.707,32.845 30.617,32.68 31.034,32.516 C 31.45,32.34 31.198,31.343 30.529,31.518 C 29.872,31.682 27.133,32.012 26.463,32.1 C 25.796,32.176 24.47,32.681 23.723,32.757 C 22.968,32.846 21.06,33.262 19.483,33.426 C 17.904,33.591 16.821,33.92 16.404,34.008 C 15.99,34.095 15.496,35.004 16.581,35.004 L 16.581,35.004 Z" stroke="none" fill="#a12225" stroke-width="0.624" stroke-linejoin="miter" marker-start="none" marker-end="none" stroke-miterlimit="79.8403193612775"/>
    <path d="M 3.617,26.112 C 3.617,26.694 4.526,26.945 4.615,26.189 C 4.69,25.444 4.778,24.194 4.856,23.196 C 4.943,22.198 5.032,21.288 5.106,20.62 C 5.196,19.962 5.611,18.295 5.688,17.791 C 5.775,17.298 5.853,16.3 5.853,15.719 C 5.853,15.138 6.027,14.304 5.939,13.887 C 5.853,13.47 5.436,12.396 5.196,13.635 C 4.943,14.886 5.106,16.465 4.943,16.88 C 4.778,17.298 4.439,18.208 4.439,18.877 C 4.439,19.545 4.11,21.288 4.033,21.706 C 3.945,22.121 3.617,25.532 3.617,26.112 L 3.617,26.112 Z" stroke="none" fill="#a12225" stroke-width="0.624" stroke-linejoin="miter" marker-start="none" marker-end="none" stroke-miterlimit="79.8403193612775"/>
    <path d="M 5.436,12.056 C 5.523,12.396 6.192,12.637 6.433,12.221 C 6.685,11.804 6.608,11.145 6.029,11.06 C 5.436,10.982 5.359,11.727 5.436,12.056 L 5.436,12.056 Z" stroke="none" fill="#a12225" stroke-width="0.624" stroke-linejoin="miter" marker-start="none" marker-end="none" stroke-miterlimit="79.8403193612775"/>
    <path d="M 6.773,13.142 C 7.518,13.887 9.676,15.05 10.925,16.135 C 12.174,17.21 14.41,18.711 14.826,19.128 C 15.242,19.544 16.329,19.204 15.408,18.46 C 14.498,17.713 12.339,16.135 11.419,15.39 C 10.509,14.633 8.022,12.977 7.518,12.473 C 7.024,11.98 6.029,12.396 6.773,13.142 L 6.773,13.142 Z" stroke="none" fill="#a12225" stroke-width="0.624" stroke-linejoin="miter" marker-start="none" marker-end="none" stroke-miterlimit="79.8403193612775"/>
    <path d="M 16.491,20.543 C 16.821,20.455 16.821,19.787 16.491,19.621 C 16.163,19.458 15.581,19.545 15.659,20.038 C 15.747,20.543 16.163,20.62 16.491,20.543 L 16.491,20.543 Z" stroke="none" fill="#a12225" stroke-width="0.624" stroke-linejoin="miter" marker-start="none" marker-end="none" stroke-miterlimit="79.8403193612775"/>
    <path d="M 7.934,11.222 C 9.095,10.894 11.673,9.227 12.505,8.899 C 13.335,8.569 14.914,7.736 15.659,7.319 C 16.406,6.902 18.236,6.069 18.738,5.829 C 19.231,5.576 19.648,5.488 19.901,5.237 C 20.152,4.994 19.813,4.074 19.156,4.415 C 18.488,4.743 15.912,6.069 15.496,6.322 C 15.078,6.575 13.501,7.408 12.996,7.737 C 12.505,8.065 11.835,8.153 11.179,8.482 C 10.509,8.812 8.187,10.062 7.43,10.478 C 6.685,10.894 6.773,11.562 7.934,11.222 L 7.934,11.222 Z" stroke="none" fill="#a12225" stroke-width="0.624" stroke-linejoin="miter" marker-start="none" marker-end="none" stroke-miterlimit="79.8403193612775"/>
    <path d="M 19.395,21.365 C 19.32,20.543 19.485,18.964 19.57,18.547 C 19.648,18.13 19.976,16.388 19.899,15.137 C 19.813,13.887 19.899,12.308 20.064,11.474 C 20.23,10.642 20.318,8.482 20.318,7.901 C 20.318,7.318 20.48,6.574 20.568,6.408 C 20.644,6.234 21.148,5.487 21.225,6.574 C 21.313,7.648 21.225,9.808 21.313,10.477 C 21.39,11.144 21.225,12.725 21.06,14.72 C 20.897,16.715 20.809,18.371 20.809,18.876 C 20.809,19.37 20.974,20.62 20.644,21.124 C 20.392,21.957 19.485,22.198 19.395,21.365 L 19.395,21.365 Z" stroke="none" fill="#a12225" stroke-width="0.624" stroke-linejoin="miter" marker-start="none" marker-end="none" stroke-miterlimit="79.8403193612775"/>
    <path d="M 20.974,4.907 C 21.227,4.994 22.058,4.326 21.731,3.58 C 21.39,2.835 20.897,3.163 20.568,3.744 C 20.23,4.327 20.734,4.831 20.974,4.907 L 20.974,4.907 Z" stroke="none" fill="#a12225" stroke-width="0.624" stroke-linejoin="miter" marker-start="none" marker-end="none" stroke-miterlimit="79.8403193612775"/>
    <path d="M 22.728,5.741 C 23.802,6.99 24.055,6.651 24.635,7.155 C 25.214,7.648 27.539,9.479 28.371,10.225 C 29.203,10.982 29.872,11.398 30.364,11.804 C 30.87,12.221 31.613,11.606 30.87,11.144 C 30.124,10.685 28.458,9.051 27.791,8.152 C 27.133,7.253 26.542,7.484 25.796,6.738 C 25.051,5.992 24.635,5.411 24.219,5.236 C 23.802,5.07 23.474,4.831 23.145,4.577 C 22.805,4.327 21.641,4.49 22.728,5.741 L 22.728,5.741 Z" stroke="none" fill="#a12225" stroke-width="0.624" stroke-linejoin="miter" marker-start="none" marker-end="none" stroke-miterlimit="79.8403193612775"/>
    <path d="M 17.982,19.961 C 18.488,19.786 20.568,19.04 21.972,18.371 C 23.386,17.713 26.793,16.3 27.461,15.882 C 28.132,15.466 30.782,14.468 31.121,14.217 C 31.452,13.975 31.528,12.725 30.782,13.054 C 30.037,13.393 27.956,14.556 26.629,15.138 C 25.304,15.719 23.221,16.716 22.225,16.968 C 21.227,17.211 19.322,18.372 18.815,18.712 C 18.323,19.041 17.742,19.041 17.489,19.458 C 17.239,19.874 17.489,20.127 17.982,19.961 L 17.982,19.961 Z" stroke="none" fill="#a12225" stroke-width="0.624" stroke-linejoin="miter" marker-start="none" marker-end="none" stroke-miterlimit="79.8403193612775"/>
    <path d="M 15.496,32.922 C 15.659,31.924 15.824,30.849 15.824,30.016 C 15.824,29.183 15.988,27.855 16.075,27.439 C 16.163,27.023 16.329,25.608 16.241,25.356 C 16.163,25.115 16.241,23.119 16.241,22.615 C 16.241,22.122 16.406,21.454 15.911,21.454 C 15.408,21.454 15.33,21.87 15.33,22.779 C 15.33,23.701 14.992,25.696 14.992,26.529 C 14.992,27.352 14.826,29.106 14.826,30.269 C 14.826,31.43 14.586,32.681 14.498,33.01 C 14.41,33.339 15.33,33.919 15.496,32.922 L 15.496,32.922 Z" stroke="none" fill="#a12225" stroke-width="0.624" stroke-linejoin="miter" marker-start="none" marker-end="none" stroke-miterlimit="79.8403193612775"/>
   </g>
  </g>
 </g>
</svg>
